<svg xmlns="http://www.w3.org/2000/svg" viewBox="0 0 48 48"><defs><style>.cls-1{fill:#201602}</style></defs><g id="Layer_2" data-name="Layer 2"><g id="layer_1-2" data-name="layer 1"><path class="cls-1" d="M45 42H3a3 3 0 0 1-3-3V9a3 3 0 0 1 3-3h14v2H3a1 1 0 0 0-1 1v30a1 1 0 0 0 1 1h42a1 1 0 0 0 1-1V9a1 1 0 0 0-1-1H31V6h14a3 3 0 0 1 3 3v30a3 3 0 0 1-3 3z"/><path class="cls-1" d="M37 48H11a1 1 0 0 1-1-1v-6a1 1 0 0 1 1-1h26a1 1 0 0 1 1 1v6a1 1 0 0 1-1 1zm-25-2h24v-4H12z"/><path class="cls-1" d="M3 46h42v2H3zM24 42c-7.91 0-16-1.43-16-12 0-6.63 5-14.86 9.19-20.59l1.62 1.18C15.52 15.09 10 23.59 10 30c0 8.33 5.36 10 14 10s14-1.67 14-10c0-6.41-5.52-14.91-8.81-19.41l1.62-1.18C35 15.14 40 23.37 40 30c0 10.57-8.09 12-16 12z"/><path class="cls-1" d="M24 12a16.06 16.06 0 0 1-6.43-1.11 1 1 0 0 1-.52-.58l-3-9A1 1 0 0 1 15.52.14c4.12 2.49 12.84 2.49 17 0a1 1 0 0 1 1.15.08 1 1 0 0 1 .33 1.1l-3 9a1 1 0 0 1-.52.58A16.06 16.06 0 0 1 24 12zm-5.19-2.74a18.51 18.51 0 0 0 10.38 0l2.13-6.39a24.53 24.53 0 0 1-14.64 0zM24 33a4 4 0 0 1-4-4h2a2 2 0 1 0 2-2 4 4 0 1 1 4-4h-2a2 2 0 1 0-2 2 4 4 0 0 1 0 8z"/><path class="cls-1" d="M23 32h2v3h-2zM23 17h2v3h-2zM16 25h2v2h-2zM30 25h2v2h-2z"/></g></g></svg>