<svg xmlns="http://www.w3.org/2000/svg" viewBox="0 0 512 512"><defs><style>.cls-5{fill:#fff}.cls-6{fill:#fab3a7}.cls-7{fill:#f58d89}.cls-9{fill:#27273d}.cls-10{fill:#dbdbdd}.cls-11{fill:#e88032}</style></defs><circle cx="256" cy="256" r="256" style="fill:#a99bd4" id="BULINE"/><g id="Icons"><path style="fill:#f7bb38" d="M152.02 163.68h213.83v194.33H152.02z"/><path d="M389.52 475a269.1 269.1 0 0 1-136.58 37c-49.91 0-97.36-17.42-136.5-40.67 0 0 9.22-65.72 30.22-94.81C160 358 172.77 345.67 193 337.35c0 0 12.71-8 18.8-9.87 10.34 10.36 45.01 30.52 45.01 30.52l52-26.07c13.41 6.07 29.34 19.78 39.43 30.45 28.64 29.76 36.03 73.31 41.28 112.62z" style="fill:#fc4581"/><path d="M267.36 511.62c-4.77.25-9.59.44-14.42.38-76.44-1-136.5-40.67-136.5-40.67 7.14-34.31 9.22-65.72 30.22-94.81C160 358 172.77 345.67 193 337.35c0 0 12.71-8 18.8-9.87a97.59 97.59 0 0 0 11.35 9.09c-.8.48-1.26.78-1.26.78-20.18 8.32-32.94 20.64-46.3 39.17-.53.73-1 1.46-1.54 2.19-33.26 48.86-4.94 115.78 52.95 127.72a271.22 271.22 0 0 0 40.36 5.19z" style="fill:#e82d86"/><path class="cls-5" d="M226.9 446.69v-107.8h-8.63v107.8a8.54 8.54 0 1 0 8.63 0zM292.38 446.69v-107.8h-8.63v107.8a8.54 8.54 0 1 0 8.63 0z"/><path class="cls-6" d="M344.87 152.2v60.34c0 45-35.83 59.45-61.94 82.35a40.22 40.22 0 0 1-53.57 0c-26.11-22.9-61.94-37.32-61.94-82.35V152.2c0-2 .06-4.08.2-6.08 2.86-41.46 34.69-74.39 74.07-76.09 1.07 0 2.15-.07 3.22-.07h22.47c41.83 0 75.92 35.18 77.43 79.18.05 1.01.06 2.03.06 3.06z"/><path class="cls-7" d="M202.83 212.55v-60.36c0-43.09 31.24-78.46 71-81.94-2.14-.2-4.29-.29-6.48-.29h-22.44c-42.8 0-77.49 36.82-77.49 82.23v29.88a17.76 17.76 0 1 0 0 35.51h.17c2.57 41.1 36.65 55.3 61.77 77.31a40.08 40.08 0 0 0 44.49 6.11 41.27 41.27 0 0 1-9.08-6.07c-26.12-22.93-61.94-37.36-61.94-82.38z"/><circle class="cls-6" cx="344.87" cy="199.83" r="17.76"/><path d="M167.93 192.76a7.07 7.07 0 1 0 0 14.13z" style="fill:#dd7c7c"/><path class="cls-7" d="M344.87 206.89a7.07 7.07 0 1 0 0-14.13z"/><ellipse class="cls-9" cx="211.84" cy="197.69" rx="7.42" ry="10.68"/><ellipse class="cls-9" cx="298.08" cy="197.69" rx="7.42" ry="10.68"/><path class="cls-9" d="M225.33 193.11a3.35 3.35 0 0 1-1.64-.43 24.06 24.06 0 0 0-23.58-.08 3.29 3.29 0 0 1-3.52-5.57c.59-.37 14.67-9.05 30.37-.07a3.29 3.29 0 0 1-1.63 6.15zM311.56 193.11a3.34 3.34 0 0 1-1.63-.43 23.88 23.88 0 0 0-23.6-.07 3.29 3.29 0 0 1-3.5-5.58c.59-.37 14.67-9.05 30.37-.07a3.29 3.29 0 0 1-1.64 6.15z"/><path class="cls-5" d="M344.7 217.57h-50a52.06 52.06 0 0 1-18.34-3.21c-4.27-1.61-10.87-3.22-20.18-3.22s-15.92 1.61-20.19 3.22a52.06 52.06 0 0 1-18.34 3.21h-50c-7.34 53.22 50.6 141.85 76.49 178.32a14.79 14.79 0 0 0 24.13 0c25.83-36.47 83.73-125.1 76.43-178.32z"/><path class="cls-10" d="m269.59 393.93-1.38 2a14.78 14.78 0 0 1-24.13 0c-25.88-36.47-83.83-125.11-76.49-178.32h26.89c-7.21 52.26 48.61 138.74 75.11 176.32zM236 214.37a115.57 115.57 0 0 0 0 35.8 2 2 0 0 1-3.73 1c-4.41-11-8.58-24-8.45-33.63z"/><path class="cls-11" d="M249.79 168.36a3.17 3.17 0 0 0-4.25 1.42c-1.37 2.73-3.06 4.43-5 5a8.12 8.12 0 0 1-5.68-.72h-.05c-20.75-13.39-44.12-.66-45.1-.11a3.29 3.29 0 0 0 3.2 5.76c.21-.12 20.94-11.33 38.33-.12a3.28 3.28 0 0 0 1.48.51 14.68 14.68 0 0 0 6 1.32 12.41 12.41 0 0 0 3.57-.51c3.76-1.1 6.77-3.89 9-8.29a3.17 3.17 0 0 0-1.5-4.26zM265.31 168.36a3.16 3.16 0 0 1 4.25 1.42c1.37 2.73 3.07 4.43 5 5a8.09 8.09 0 0 0 5.67-.72h.05c20.75-13.39 44.11-.66 45.1-.11a3.3 3.3 0 0 1-3.21 5.76c-.2-.12-20.94-11.33-38.32-.12a3.28 3.28 0 0 1-1.49.51 14.68 14.68 0 0 1-6 1.32 12.46 12.46 0 0 1-3.57-.51c-3.75-1.1-6.77-3.89-9-8.29a3.18 3.18 0 0 1 1.52-4.26z"/><path d="M391.66 269.21s-11.91-34.6-6-67.07c0 0 18.53-50.79-28.45-89.46 0 0-12-59.31-64.58-62.7 0 0-25.32-20.23-36.56-6.14C244.88 29.7 219.62 50 219.62 50c-52.56 3.39-64.58 62.7-64.58 62.7-47 38.67-28.45 89.46-28.45 89.46 5.95 32.47-6 67.07-6 67.07-16.54 66.31 21.18 105.49 21.18 105.49 22.15 27.35 22.24 47 18.92 58.14a4.68 4.68 0 0 0 6.8 5.43 47.83 47.83 0 0 0 21.84-25.53c5.38-14.69 3.51-31.09-4.25-44.61-26.12-45.48-7.58-84.5-7.58-84.5 19.86-29.17-4.63-50.2-4.63-50.2-32.43-30.53 0-49.47 0-49.47 17.87-11.41 22.17-29.07 23.08-39.35a40.87 40.87 0 0 1 9.88-23.63c21.84-24.57 50.31-2.84 50.31-2.84s28.48-21.73 50.32 2.84a41 41 0 0 1 9.85 23.66c.9 10.28 5.2 27.94 23.07 39.35 0 0 32.43 18.94 0 49.47 0 0-24.49 21-4.63 50.2 0 0 18.54 39-7.57 84.5-7.77 13.52-9.64 29.92-4.25 44.61a47.77 47.77 0 0 0 21.83 25.53 4.68 4.68 0 0 0 6.8-5.43c-3.32-11.17-3.22-30.79 18.92-58.14 0-.05 37.72-39.23 21.18-105.54z" style="fill:#f6c752"/></g></svg>